<?xml version="1.0" standalone="no"?>
<!DOCTYPE svg PUBLIC "-//W3C//DTD SVG 20010904//EN"
 "http://www.w3.org/TR/2001/REC-SVG-20010904/DTD/svg10.dtd">
<svg version="1.0" xmlns="http://www.w3.org/2000/svg"
 width="480.000000pt" height="480.000000pt" viewBox="0 0 480.000000 480.000000"
 preserveAspectRatio="xMidYMid meet">
<metadata>
Created by potrace 1.12, written by Peter Selinger 2001-2015
</metadata>
<g transform="translate(0.000000,480.000000) scale(0.100000,-0.100000)"
fill="#000000" stroke="none">
<path d="M0 4702 c0 -97 1 -99 26 -111 22 -10 25 -16 20 -41 -3 -17 -15 -50
-26 -75 -20 -45 -21 -53 -20 -1510 1 -1413 2 -1465 20 -1478 20 -14 57 -84 48
-92 -9 -9 -38 7 -38 21 0 8 -7 14 -15 14 -13 0 -15 -44 -13 -363 l3 -362 39
-3 c48 -4 89 5 81 18 -4 6 3 22 14 36 12 15 21 22 21 15 0 -6 5 -11 10 -11 15
0 12 16 -5 34 -14 13 -13 17 7 36 14 13 32 20 45 17 13 -2 23 0 23 6 0 6 3 7
7 4 3 -4 17 0 30 8 13 9 28 13 33 10 6 -3 10 3 10 14 0 12 7 21 15 21 8 0 17
11 21 25 5 20 12 25 39 25 19 0 39 8 50 20 10 12 25 18 32 16 18 -7 100 36
106 55 4 16 22 22 109 39 25 5 58 19 73 32 14 12 46 28 69 35 30 9 45 20 49
34 4 16 11 20 27 16 15 -4 35 4 63 24 22 16 46 29 53 29 7 0 19 6 26 14 15 14
89 27 185 30 68 3 101 20 82 42 -6 8 -18 14 -25 14 -8 0 -14 9 -14 21 0 16 -4
19 -22 14 -17 -6 -20 -4 -15 10 4 9 7 19 7 21 0 11 30 2 30 -8 1 -7 9 -3 19
10 11 12 29 22 40 22 14 0 21 6 21 18 0 14 15 24 55 37 30 11 55 23 55 27 0 4
9 8 19 8 27 0 52 11 46 20 -3 4 42 11 99 15 83 6 109 11 125 27 26 23 27 38 4
38 -10 0 -24 4 -32 9 -11 7 -10 14 6 37 11 16 18 36 16 44 -3 10 -2 11 4 3 6
-9 25 -8 77 3 38 8 91 15 118 17 26 1 48 6 48 11 0 4 16 5 35 2 29 -6 34 -4
29 9 -4 9 -18 15 -35 15 -31 0 -39 17 -14 26 8 4 12 10 9 15 -3 5 -2 9 3 9 4
0 8 25 8 55 0 30 3 55 7 55 4 0 8 -15 8 -32 0 -18 4 -38 8 -43 10 -15 198 -3
214 13 9 9 9 12 -3 12 -8 0 -25 9 -38 21 -17 16 -20 24 -10 35 7 8 17 11 28 6
22 -11 163 -3 155 9 -3 5 -18 9 -34 9 -16 0 -32 4 -35 10 -4 6 5 10 19 10 17
0 26 6 26 15 0 11 7 14 25 9 31 -8 78 3 70 16 -3 6 -1 10 4 10 6 0 10 3 10 8
-4 22 5 27 43 25 24 -1 56 0 72 4 27 5 28 7 13 18 -19 14 -23 45 -6 45 6 0 9
-7 5 -15 -4 -12 4 -15 45 -15 48 0 49 -1 43 -25 -4 -18 -2 -25 9 -25 9 0 23
-24 37 -62 12 -35 28 -76 35 -93 20 -47 33 -87 40 -121 7 -36 132 -287 145
-292 5 -2 14 -19 20 -38 6 -19 17 -34 23 -34 8 0 8 3 0 11 -13 13 -5 59 11 59
21 0 42 -19 30 -27 -6 -5 -14 -19 -18 -33 -3 -14 -3 -19 0 -12 3 6 12 12 19
12 7 0 15 6 17 12 3 8 9 4 17 -10 6 -12 18 -22 27 -22 19 0 74 -56 74 -76 0
-8 4 -12 10 -9 5 3 7 0 4 -9 -7 -18 34 -31 67 -23 32 8 85 -24 109 -66 12 -20
18 -37 13 -37 -4 0 -14 -9 -21 -21 -12 -18 -11 -23 7 -36 12 -8 21 -23 21 -33
0 -11 9 -25 20 -32 11 -7 20 -18 20 -25 0 -7 11 -13 24 -13 16 0 31 -12 50
-40 14 -22 23 -40 19 -40 -5 0 -1 -5 7 -10 12 -8 12 -10 -5 -11 l-20 0 20 -10
c15 -7 11 -7 -14 -3 -84 15 -165 70 -279 188 -46 47 -86 86 -90 86 -10 -1 -63
-112 -62 -130 0 -9 -5 -21 -10 -26 -7 -7 -5 -21 6 -42 8 -17 13 -36 9 -42 -3
-5 -1 -10 5 -10 15 0 49 -41 50 -60 0 -13 1 -13 11 0 8 11 12 12 16 3 2 -7 11
-13 18 -13 7 0 20 -11 28 -24 9 -13 30 -39 46 -57 17 -18 31 -42 31 -53 0 -10
7 -24 16 -30 8 -6 16 -19 17 -27 2 -9 15 -27 29 -42 15 -14 29 -35 33 -46 3
-11 16 -21 28 -23 13 -2 21 -9 19 -18 -2 -7 4 -30 13 -50 14 -31 21 -36 41
-32 13 2 24 0 24 -6 0 -20 88 -52 114 -42 13 5 50 5 82 0 33 -4 62 -6 66 -4 4
3 11 -3 16 -12 6 -10 16 -15 26 -11 9 4 16 2 16 -3 0 -6 6 -10 14 -10 7 0 19
-7 26 -15 7 -9 20 -14 29 -12 9 2 32 -4 51 -13 54 -24 74 -20 85 18 5 17 12
32 17 32 4 0 16 20 27 44 25 58 60 80 125 79 45 -1 54 3 78 31 15 17 27 36 28
43 0 6 9 14 19 18 10 3 21 15 24 25 3 11 12 20 21 20 9 0 16 4 16 9 0 5 8 11
19 14 22 5 52 62 45 82 -3 8 -3 19 1 25 10 16 45 -23 45 -50 0 -11 4 -20 8
-20 5 0 17 -18 27 -40 10 -22 22 -40 27 -40 4 0 8 -7 8 -15 0 -8 4 -15 10 -15
13 0 8 12 -68 175 -35 77 -84 170 -108 206 -24 36 -48 77 -52 90 -9 23 -7 24
60 36 38 6 72 14 75 17 3 2 -4 14 -15 26 -17 18 -21 41 -26 128 -4 59 -8 128
-11 155 -2 26 0 47 5 47 6 0 10 -4 10 -10 0 -5 3 -10 8 -10 4 0 4 53 1 117 -4
74 -3 127 4 143 10 24 11 23 18 -20 4 -25 8 -78 8 -118 1 -40 5 -71 10 -68 5
3 12 -2 17 -12 6 -13 9 -10 14 18 5 24 8 2 10 -70 1 -58 5 -116 9 -130 6 -22
8 -23 14 -6 6 15 10 16 22 6 10 -8 19 -9 32 -1 11 6 13 11 5 11 -19 0 -9 469
10 481 16 10 38 -8 31 -27 -3 -8 0 -14 6 -14 6 0 11 7 11 15 0 21 18 19 23 -2
4 -16 5 -16 6 1 1 13 4 16 14 9 6 -6 24 -13 40 -17 26 -6 27 -5 27 33 0 36 -3
40 -32 46 -18 4 -66 18 -107 31 -40 13 -79 24 -87 24 -8 0 -14 -16 -17 -42 -2
-24 -4 11 -5 77 -2 115 -1 121 20 130 26 12 38 38 13 28 -14 -5 -16 -2 -10 15
4 14 2 22 -6 22 -9 0 -8 4 1 15 7 8 21 15 31 15 11 0 19 5 19 10 0 6 6 10 13
10 17 0 53 59 61 100 l7 35 -15 -26 c-17 -30 -49 -53 -87 -62 -36 -9 -42 1
-18 34 14 19 25 26 37 22 15 -6 15 -5 3 10 -14 18 -7 52 9 42 5 -3 10 0 11 7
0 7 4 4 9 -7 8 -19 9 -18 11 5 1 14 2 31 2 37 -1 7 3 10 8 7 8 -5 10 11 14
106 1 19 3 46 4 60 3 22 4 21 13 -10 6 -19 11 -49 12 -67 0 -17 4 -29 7 -27
11 6 17 54 7 54 -5 0 -4 9 2 20 6 11 15 18 21 15 5 -4 9 -3 8 2 -1 4 1 15 4
23 13 32 27 96 27 124 0 27 -1 28 -37 21 -21 -4 -39 -11 -41 -16 -5 -13 -46
-11 -60 3 -17 17 -15 31 3 25 15 -6 19 7 30 115 6 58 15 66 43 41 7 -7 23 -13
35 -13 19 0 16 5 -19 43 -59 61 -85 113 -90 177 -2 30 -6 65 -9 77 -7 31 4 53
26 53 24 0 25 -16 2 -29 -17 -9 -17 -11 3 -31 15 -15 35 -22 70 -23 l49 -2 3
143 3 142 -26 2 c-14 0 -30 1 -37 2 -6 1 -16 -13 -22 -30 -6 -17 -20 -43 -32
-58 -18 -24 -22 -26 -35 -14 -8 8 -22 17 -31 21 -18 6 -19 12 -24 139 -1 32
-4 76 -8 98 l-6 40 37 1 c21 1 42 0 48 -1 5 -1 21 -3 35 -5 14 -2 42 -6 63
-10 30 -6 37 -4 37 8 0 10 -12 18 -32 21 -18 3 -49 8 -68 11 -19 3 -55 8 -80
10 -45 6 -53 12 -77 68 -8 17 -8 27 -2 27 6 0 3 7 -6 16 -10 11 -14 25 -10 38
10 35 10 41 0 41 -5 0 -9 -6 -9 -12 1 -7 -2 -10 -7 -7 -5 3 -9 12 -9 20 0 8
-5 12 -11 9 -6 -4 -13 2 -16 13 -5 20 -46 38 -62 27 -5 -2 -11 7 -14 20 -2 14
0 28 4 31 5 3 9 13 9 22 0 15 -2 15 -10 2 -8 -13 -10 -12 -10 4 0 13 5 17 18
14 16 -5 17 -2 8 28 -6 18 -15 30 -21 26 -5 -3 -3 3 5 13 9 11 10 16 2 11 -6
-4 -12 -2 -12 3 0 6 9 11 20 11 11 0 20 5 20 10 0 6 -7 10 -15 10 -18 0 -20
16 -2 24 10 5 10 7 0 12 -7 3 -12 18 -12 32 2 24 2 24 6 5 7 -37 23 -26 24 15
0 20 4 46 8 57 5 11 4 25 -2 33 -14 17 -1 28 17 13 11 -10 15 -9 18 3 3 12 7
12 33 0 17 -8 22 -12 13 -9 -14 3 -18 -2 -18 -20 0 -21 3 -24 18 -16 9 5 25
12 36 15 11 4 16 12 12 21 -5 14 -2 13 24 0 21 -11 28 -20 23 -33 -6 -15 -5
-15 10 -3 11 8 17 9 17 3 0 -6 7 -9 16 -5 10 4 17 -1 20 -15 4 -13 12 -18 25
-15 10 3 32 0 49 -6 18 -6 28 -6 25 -1 -4 6 1 10 9 10 14 0 16 25 16 199 l0
199 -42 15 c-182 64 -170 58 -164 86 3 14 8 36 12 49 6 21 3 22 -45 22 -47 0
-51 -2 -51 -25 0 -35 -19 -71 -44 -83 -16 -7 -380 -81 -636 -129 -19 -3 -51
-6 -70 -5 -30 0 -31 -1 -10 -7 15 -4 20 -10 13 -14 -19 -12 -73 17 -73 39 0
30 83 45 98 18 20 -37 32 -2 32 96 0 80 -3 99 -16 104 -9 3 -58 6 -109 6 -73
0 -94 -3 -99 -15 -6 -16 -36 -21 -36 -6 0 5 -9 11 -20 14 -11 3 -20 1 -20 -4
0 -5 5 -9 10 -9 6 0 10 -4 10 -10 0 -5 -9 -10 -19 -10 -11 0 -26 -8 -33 -17
-7 -10 -22 -25 -32 -33 -18 -14 -19 -13 -13 3 4 11 3 16 -3 12 -6 -3 -10 -20
-10 -36 0 -16 -6 -32 -14 -35 -11 -4 -7 -12 15 -33 16 -16 29 -34 29 -41 0
-10 17 -11 75 -6 51 5 75 3 75 -4 0 -6 -7 -13 -15 -16 -8 -4 -13 -10 -10 -14
3 -5 1 -20 -5 -35 -8 -22 -15 -26 -33 -21 -21 5 -39 -7 -60 -40 -8 -14 15 -79
38 -104 l18 -20 27 30 c25 28 60 41 60 22 0 -15 -28 -47 -35 -40 -11 10 -45
-30 -51 -61 -6 -31 12 -53 26 -31 4 7 14 10 21 8 8 -3 21 -2 30 3 10 5 23 3
35 -5 17 -13 15 -15 -23 -25 -51 -14 -96 -16 -143 -7 -24 4 -29 3 -15 -3 18
-8 17 -9 -10 -13 -16 -2 38 -4 121 -5 l151 -2 -6 27 c-5 25 -6 25 -9 5 -4 -27
-28 -31 -34 -5 -7 31 3 54 22 49 12 -3 20 2 23 15 5 19 6 19 32 2 23 -15 25
-20 13 -28 -18 -13 -32 -76 -17 -76 6 0 8 4 5 9 -8 12 21 34 34 26 5 -3 10 -3
10 2 0 4 16 26 35 48 19 22 35 44 35 49 0 5 3 7 6 4 6 -7 -46 -111 -58 -116
-12 -5 -10 -22 3 -22 6 0 20 11 31 25 11 14 24 23 29 20 12 -8 12 -52 -1 -60
-6 -4 -22 -29 -35 -56 l-25 -49 -173 -1 c-105 0 -164 -4 -152 -9 11 -5 40 -9
65 -11 l45 -2 -45 -7 c-27 -4 -48 -3 -51 2 -4 6 -9 6 -13 -1 -4 -6 -21 -11
-37 -11 -18 0 -28 -4 -24 -10 5 -8 -55 -16 -87 -11 -4 0 -5 -6 -1 -15 4 -11
15 -15 35 -12 20 3 27 1 24 -7 -2 -7 0 -17 6 -23 11 -11 4 -17 -34 -26 -17 -4
-28 -2 -28 4 0 5 -5 10 -11 10 -5 0 -7 -4 -4 -10 3 -5 -6 -12 -20 -16 -14 -3
-32 -19 -41 -36 -11 -21 -20 -28 -32 -24 -12 4 -10 0 5 -13 16 -14 19 -21 10
-30 -6 -6 -16 -11 -22 -11 -6 0 -18 -13 -27 -28 -10 -16 -38 -41 -63 -57 -25
-16 -45 -33 -45 -37 0 -4 -9 -8 -20 -8 -11 0 -20 -4 -20 -10 0 -5 5 -10 10
-10 6 0 10 -5 10 -11 0 -7 -11 -8 -30 -4 -31 7 -38 -2 -20 -23 7 -9 7 -9 -2
-2 -15 12 -31 13 -24 1 8 -12 -14 -28 -49 -36 -17 -4 -40 -18 -53 -31 -14 -15
-28 -21 -39 -17 -10 4 -14 2 -10 -4 7 -11 -85 -73 -109 -73 -8 0 -12 -4 -9
-10 4 -6 -6 -10 -24 -10 -23 0 -29 -4 -25 -15 4 -10 -3 -18 -20 -25 -14 -5
-32 -22 -38 -37 -7 -16 -22 -41 -34 -58 -26 -38 -54 -98 -54 -119 0 -23 -22
-19 -49 9 -13 14 -27 25 -33 25 -5 0 -6 4 -3 10 3 5 -5 12 -19 16 -13 3 -36
18 -49 32 -14 15 -32 32 -39 37 -7 6 -31 23 -53 40 -57 42 -74 56 -109 88 -17
16 -43 36 -58 45 -25 15 -33 31 -29 56 1 5 -5 4 -13 -3 -12 -10 -20 -7 -45 20
-18 19 -31 26 -31 18 -1 -8 -7 1 -15 19 -8 17 -21 32 -30 32 -12 0 -16 7 -12
28 2 15 2 21 0 15 -3 -7 -13 -13 -24 -13 -18 0 -23 10 -20 38 2 10 -4 12 -20
7 -20 -7 -21 -5 -15 31 5 33 5 36 -5 19 -7 -11 -13 -22 -15 -24 -2 -2 -15 6
-30 18 -15 11 -33 21 -41 21 -12 0 -13 9 -8 43 4 23 12 45 17 48 7 4 7 9 0 13
-6 3 -16 -9 -22 -29 -12 -36 -23 -44 -36 -23 -10 16 -13 48 -3 43 4 -3 9 9 11
25 3 21 0 30 -10 30 -7 0 -12 -6 -10 -12 3 -7 -4 -21 -14 -32 -28 -31 -45 -8
-30 42 15 48 15 52 1 52 -6 0 -9 -6 -6 -14 6 -16 -36 -41 -53 -31 -11 7 -9 26
6 78 4 11 0 17 -10 17 -9 0 -18 -11 -22 -26 -4 -16 -12 -24 -23 -22 -17 4 -19
29 -6 86 10 43 -17 45 -35 2 -14 -33 -37 -40 -47 -14 -5 14 0 35 24 99 2 6 -5
11 -16 12 -13 1 -23 -8 -30 -28 -7 -21 -16 -29 -28 -27 -14 3 -17 11 -15 43 2
22 8 45 14 52 13 16 2 32 -19 29 -10 -2 -20 -14 -23 -27 -4 -15 -13 -24 -25
-24 -21 0 -23 19 -9 98 6 33 4 37 -15 37 -16 0 -23 -8 -28 -30 -7 -38 -20 -47
-41 -27 -14 14 -14 23 -2 72 15 60 15 60 -18 69 -18 6 -22 3 -22 -13 0 -11 -5
-23 -10 -26 -6 -4 -8 -11 -5 -16 10 -15 -22 -10 -35 6 -9 11 -9 26 1 70 11 48
10 58 -2 66 -25 16 -38 10 -53 -26 -16 -38 -27 -43 -46 -20 -10 12 -10 24 -2
53 24 78 24 84 11 93 -29 18 -49 9 -65 -31 -18 -45 -24 -48 -48 -21 -17 18
-17 23 2 90 20 68 20 71 2 71 -10 0 -25 3 -33 6 -11 4 -21 -8 -36 -41 -22 -50
-38 -54 -58 -14 -10 21 -9 36 8 89 11 35 16 67 12 71 -5 3 -25 10 -46 13 -36
7 -38 5 -52 -28 -9 -20 -21 -36 -29 -36 -20 0 -42 30 -38 52 3 17 -12 18 -357
18 l-361 0 0 -98z m4304 -420 c0 -12 4 -21 10 -19 6 2 10 14 9 26 -2 15 3 21
17 21 22 0 45 -35 33 -52 -8 -15 -5 -77 7 -118 5 -17 6 -30 2 -30 -8 0 -7
-133 1 -146 3 -5 0 -17 -7 -26 -11 -15 -16 -14 -58 12 -25 16 -54 40 -66 54
-11 14 -29 26 -39 26 -11 0 -40 11 -64 23 l-44 24 1 54 c1 51 -1 55 -22 57
-15 1 -24 -4 -24 -12 0 -24 12 -46 21 -40 5 3 9 1 9 -3 0 -5 -9 -14 -20 -20
-16 -11 -23 -9 -48 12 -15 13 -40 27 -55 30 -27 7 -31 15 -27 45 3 24 42 62
53 51 6 -6 16 -2 27 11 21 26 40 16 40 -22 0 -34 12 -44 45 -36 22 6 23 9 14
33 -5 14 -7 33 -4 41 4 12 8 12 28 -1 19 -12 24 -12 35 0 20 21 45 -3 39 -36
-3 -14 -1 -35 4 -48 5 -13 4 -25 -1 -28 -5 -3 -7 -11 -5 -18 12 -42 15 -68 5
-62 -16 10 -12 -12 6 -29 17 -18 28 -21 19 -7 -3 5 -1 13 5 16 8 5 8 11 0 20
-7 8 -7 15 -1 19 5 3 12 0 14 -6 3 -7 6 -3 6 10 1 19 -3 22 -19 17 -11 -4 -20
-2 -20 4 0 6 6 10 13 9 8 -2 12 15 13 59 2 85 11 115 32 111 10 -2 17 -12 16
-26z m-1043 -756 c-7 -8 -23 -17 -36 -20 -14 -4 -25 -12 -25 -19 0 -14 -58
-49 -70 -42 -4 3 -10 -4 -13 -15 -3 -13 -13 -20 -29 -20 -21 1 -20 3 15 31 36
30 47 49 27 49 -5 0 -23 -12 -39 -27 -51 -48 -60 -53 -82 -53 -15 0 -19 5 -15
15 8 23 -27 19 -42 -5 -7 -11 -19 -20 -28 -20 -8 0 -12 -5 -9 -10 7 -11 -35
-31 -49 -22 -5 3 -6 0 -3 -5 4 -6 -3 -19 -14 -29 -17 -16 -22 -16 -30 -4 -8
12 -14 10 -35 -14 -16 -18 -29 -25 -35 -19 -15 15 76 99 141 129 8 4 27 18 42
31 14 14 28 24 30 23 3 -2 81 18 108 28 8 3 24 6 35 7 11 1 27 5 35 8 13 6 30
8 114 15 15 2 16 -1 7 -12z m200 -74 c-12 -8 -21 -18 -21 -23 0 -13 67 30 74
46 9 25 24 17 18 -10 -2 -14 -8 -23 -12 -20 -4 3 -10 -2 -14 -10 -3 -9 -12
-12 -22 -8 -14 5 -16 0 -12 -31 3 -27 -1 -41 -15 -53 -18 -17 -18 -16 -12 12
l7 30 -30 -32 c-37 -39 -45 -41 -59 -10 -12 25 1 62 18 52 15 -10 10 12 -6 25
-12 10 -15 10 -15 -3 0 -14 -13 -23 -34 -25 -12 -1 -36 -50 -36 -73 0 -11 -4
-19 -10 -19 -16 0 -12 19 17 80 30 60 92 110 138 110 13 0 27 6 32 13 5 8 9 4
11 -13 3 -17 -3 -29 -17 -38z m-1561 -64 c0 -6 3 -8 7 -5 3 4 12 -2 20 -13 8
-11 20 -20 27 -20 8 0 19 -7 26 -15 7 -8 21 -15 31 -15 13 0 19 -7 19 -21 0
-13 4 -18 12 -13 6 4 16 1 22 -7 6 -8 33 -25 60 -39 27 -13 54 -29 60 -35 6
-6 22 -16 36 -23 34 -16 64 -35 71 -45 5 -7 35 -26 180 -116 65 -41 70 -46 53
-58 -16 -12 -16 -13 -1 -13 9 0 17 -4 17 -10 0 -5 -2 -10 -5 -10 -7 0 -60 24
-65 30 -3 3 -31 18 -63 34 -39 20 -56 33 -53 43 3 8 1 11 -4 8 -5 -3 -28 -1
-51 5 -34 9 -38 14 -29 26 10 11 9 14 -4 14 -9 0 -16 -5 -16 -10 0 -9 -47 15
-60 30 -3 4 -14 10 -25 14 -16 6 -17 9 -5 16 13 9 13 10 0 10 -11 1 -10 4 4
15 16 12 17 15 4 15 -8 0 -22 -10 -31 -22 -14 -23 -15 -23 -36 -4 -20 18 -20
20 -3 33 15 11 13 12 -11 3 -38 -13 -40 -13 -65 10 -25 24 -28 40 -8 40 8 0
18 4 21 10 9 15 -28 -1 -42 -18 -11 -13 -13 -13 -19 1 -3 9 -10 14 -15 11 -12
-7 -11 1 5 41 8 19 11 37 7 39 -4 3 -13 -11 -20 -30 -13 -35 -37 -45 -47 -20
-3 8 0 24 6 36 6 12 9 24 6 27 -3 3 -11 -6 -17 -21 -13 -28 -35 -37 -25 -10 3
9 9 28 12 42 6 26 5 26 -11 -3 -25 -46 -39 -55 -31 -21 12 50 56 101 56 64z
m2063 -150 c6 -4 23 5 37 19 24 25 25 25 28 4 4 -27 17 -27 35 0 14 20 15 20
35 -8 18 -24 23 -26 39 -15 10 7 26 15 36 18 9 4 17 11 16 18 -1 6 -1 22 0 36
2 24 2 24 16 6 8 -10 22 -41 31 -68 14 -44 14 -51 1 -66 -8 -9 -18 -27 -21
-39 -4 -13 -11 -23 -16 -23 -5 0 -7 -7 -4 -15 4 -10 14 -13 32 -8 21 5 24 3
19 -11 -7 -18 13 -46 32 -46 6 0 11 -9 11 -19 0 -11 9 -26 20 -34 11 -8 17
-17 12 -22 -4 -4 7 -5 25 -2 26 5 31 3 26 -8 -3 -9 1 -15 11 -15 9 0 19 -12
22 -27 4 -16 11 -30 15 -33 11 -7 0 -50 -12 -50 -6 0 -14 10 -19 23 -7 18 -9
16 -9 -18 1 -22 3 -34 6 -28 6 15 25 -1 36 -29 3 -10 13 -18 21 -18 8 0 18 -9
21 -20 3 -11 15 -25 26 -30 10 -6 19 -21 19 -34 0 -21 9 -49 48 -156 3 -8 5
-18 4 -22 -1 -4 3 -19 8 -34 14 -36 -4 -100 -37 -130 -16 -15 -23 -29 -19 -40
4 -11 -1 -22 -14 -31 -11 -8 -20 -20 -20 -28 0 -21 -50 -55 -81 -55 -33 0 -45
-15 -29 -35 16 -20 -14 -32 -35 -15 -12 10 -15 9 -15 -4 0 -9 -6 -16 -12 -16
-16 0 -58 -44 -58 -59 0 -6 -6 -11 -13 -11 -8 0 -22 -9 -32 -20 -14 -15 -26
-18 -64 -14 -32 3 -40 2 -26 -5 19 -8 19 -9 2 -16 -10 -4 -23 -3 -30 4 -6 6
-20 11 -31 11 -20 0 -20 0 0 15 18 13 16 14 -25 15 -50 0 -111 34 -111 62 0 9
-9 18 -21 20 -12 2 -27 12 -33 23 -13 24 -46 55 -58 55 -5 0 -11 -7 -14 -15
-4 -8 -16 -15 -28 -15 -31 0 -59 -36 -46 -60 7 -13 6 -20 -3 -23 -6 -3 -3 -6
9 -6 37 -2 73 -26 84 -55 15 -43 13 -57 -15 -86 -20 -21 -32 -25 -60 -22 -19
2 -33 8 -30 12 9 15 -49 20 -110 10 -33 -5 -71 -12 -85 -14 -26 -4 -70 12 -70
25 0 21 -29 -6 -32 -29 -3 -24 -7 -27 -36 -25 -71 3 -72 84 -1 128 33 22 59
65 38 65 -5 0 -9 6 -9 13 0 18 -24 67 -32 67 -5 0 -8 15 -8 34 0 19 -6 36 -12
39 -10 3 -10 10 1 31 10 18 11 30 4 37 -7 7 -3 18 14 35 13 13 28 24 32 24 8
0 20 20 26 43 2 4 4 10 5 15 2 4 3 14 4 22 1 8 10 16 21 18 11 2 27 10 36 18
22 19 54 6 99 -40 33 -35 122 -83 164 -90 11 -1 21 -11 22 -20 3 -24 10 -30
19 -17 3 6 1 11 -5 11 -6 0 -8 5 -5 10 9 15 71 12 84 -4 14 -16 69 -29 85 -19
6 4 28 8 49 9 21 1 46 9 55 17 9 9 19 15 22 15 22 -1 80 16 80 24 0 5 13 14
30 19 16 6 32 20 36 31 5 16 8 18 15 7 5 -8 9 -11 10 -6 1 4 2 11 3 15 2 14
56 63 64 59 13 -8 67 30 66 47 -1 9 1 16 5 16 3 0 6 40 6 90 0 56 -3 86 -9 80
-17 -17 -27 -11 -14 10 10 16 9 23 -10 43 -12 13 -22 28 -22 33 0 16 -51 58
-93 77 -44 20 -67 22 -67 6 0 -7 -12 -9 -35 -5 -23 5 -35 3 -35 -4 0 -6 -6
-10 -12 -9 -32 4 -69 -2 -63 -10 5 -9 -77 -29 -115 -29 -8 -1 -28 -3 -43 -7
-31 -6 -83 -12 -196 -20 -41 -3 -78 -8 -83 -11 -4 -3 -8 1 -8 8 -1 7 -9 3 -20
-11 -17 -19 -23 -21 -35 -11 -10 8 -15 9 -15 2 0 -7 -13 -5 -36 4 -32 14 -38
14 -53 0 -10 -9 -21 -12 -27 -7 -5 5 -27 12 -49 15 -28 5 -35 4 -25 -3 23 -15
5 -24 -47 -23 -33 0 -51 6 -60 18 -11 16 -13 16 -19 1 -7 -20 -54 -23 -72 -5
-9 9 -12 9 -12 0 0 -15 -26 -16 -35 -1 -4 5 -4 21 -1 33 7 30 93 146 107 146
7 0 10 -18 7 -50 -3 -43 -1 -49 14 -44 9 2 19 0 23 -7 5 -7 13 0 22 20 8 16
20 29 26 28 6 -1 14 12 18 28 4 17 7 26 8 21 0 -5 8 -3 16 4 12 10 16 9 21 -4
9 -24 21 -20 40 13 10 17 21 28 25 26 4 -3 14 13 23 35 17 42 25 47 43 29 13
-13 33 -4 33 16 0 7 8 16 18 19 9 3 31 19 49 36 26 24 37 29 62 24 21 -4 31
-12 31 -24 0 -14 5 -17 23 -11 36 11 87 45 87 58 0 9 18 11 61 9 50 -3 59 -1
54 12 -3 8 3 23 13 33 11 9 23 37 28 61 l8 43 4 -50 c2 -27 8 -53 15 -57z
m-1073 -991 c0 13 50 11 84 -3 13 -5 21 -3 24 4 5 17 29 15 36 -4 4 -10 13
-14 26 -11 12 3 45 -3 75 -14 44 -15 59 -17 74 -8 19 12 51 7 51 -9 0 -4 -9
-17 -19 -29 -17 -18 -18 -22 -4 -36 14 -14 13 -19 -11 -50 -17 -22 -24 -41
-20 -53 4 -14 3 -15 -4 -5 -7 10 -11 10 -17 1 -4 -7 -1 -16 6 -21 8 -5 10 -9
5 -9 -6 0 3 -13 19 -30 16 -16 36 -30 45 -30 9 0 24 -15 33 -32 17 -37 41
-174 32 -189 -4 -5 -17 -9 -31 -9 -15 0 -24 -6 -24 -15 0 -21 -20 -19 -20 3
-1 15 -2 15 -16 -3 -13 -17 -16 -18 -24 -5 -8 13 -10 12 -10 -2 0 -12 -8 -18
-22 -18 -17 0 -19 3 -9 9 10 6 5 12 -18 22 -17 8 -31 19 -31 26 0 6 -6 14 -12
17 -10 5 -10 7 0 12 6 3 12 17 12 31 0 20 3 23 13 14 8 -6 17 -8 20 -4 13 12
7 23 -13 23 -11 0 -20 5 -20 10 0 6 -6 10 -14 10 -8 0 -16 7 -20 15 -3 8 -15
15 -26 15 -28 0 -25 18 5 26 25 6 35 24 14 24 -6 0 -17 7 -26 16 -11 11 -26
14 -52 10 -34 -6 -37 -4 -54 30 -19 38 -13 53 20 54 18 0 28 49 14 63 -9 9
-14 9 -20 -2 -7 -11 -10 -9 -16 8 -3 11 -14 21 -24 21 -10 0 -26 9 -36 20 -14
15 -20 17 -26 8 -4 -7 -11 -9 -16 -4 -4 4 0 12 10 18 13 7 18 20 17 46 -3 52
-1 59 10 42 6 -9 10 -10 10 -3z m-1069 -14 c1 -10 0 -30 -1 -45 -2 -29 17 -36
54 -22 23 9 10 23 -17 18 -12 -2 -16 -2 -9 2 6 3 13 18 13 32 1 17 3 21 6 10
2 -10 10 -18 18 -18 19 0 38 -56 31 -91 -4 -20 0 -39 10 -55 20 -30 11 -43
-14 -21 -22 20 -37 22 -25 5 9 -16 13 -38 6 -38 -2 0 -12 8 -21 17 -16 16 -17
16 -20 0 -5 -24 -22 -21 -22 3 0 10 -13 34 -28 52 -32 36 -52 87 -52 128 0 34
6 40 42 40 20 0 28 -5 29 -17z m-191 -205 c0 -37 5 -70 10 -73 13 -8 13 -45
-1 -45 -5 0 -7 4 -4 10 6 11 -42 26 -52 16 -4 -3 2 -6 13 -6 13 0 20 -7 20
-20 0 -21 -11 -26 -21 -10 -10 16 -45 12 -45 -5 0 -23 -17 -18 -24 8 -3 12 -6
55 -6 95 0 70 1 72 25 72 14 0 25 5 25 10 0 6 9 10 20 10 12 0 20 7 20 18 0
14 2 15 10 2 5 -8 10 -45 10 -82z m2312 -85 c24 -16 37 -32 33 -41 -3 -8 2
-16 14 -19 34 -9 57 -93 26 -93 -8 0 -15 -7 -15 -15 0 -9 -6 -12 -15 -9 -8 4
-17 -1 -21 -10 -3 -9 -21 -23 -39 -32 -29 -13 -49 -43 -46 -66 1 -10 -19 -10
-118 2 -71 9 -89 9 -117 -5 -23 -10 -46 -14 -68 -9 -44 8 -74 28 -58 38 7 4
12 3 12 -2 0 -17 51 -23 86 -12 19 7 34 16 34 21 0 5 24 9 53 10 28 0 70 6 92
13 l40 12 2 63 c2 89 10 126 36 155 12 14 24 26 26 26 3 0 22 -12 43 -27z
m-2994 -27 c0 -6 2 -19 7 -29 4 -9 3 -23 -2 -30 -8 -10 -9 -39 -4 -89 1 -5 7
-8 15 -8 11 0 36 -46 36 -66 0 -14 -31 0 -46 21 -25 33 -35 31 -57 -7 -12 -20
-21 -28 -28 -21 -5 5 -12 64 -15 131 -5 108 -4 121 10 116 9 -3 16 -1 16 4 0
6 8 12 18 15 19 4 53 -20 50 -37z m-354 -37 c-18 -7 -18 -8 2 -8 18 -1 22 -7
22 -46 1 -25 -3 -45 -8 -45 -6 0 -10 -5 -10 -11 0 -5 5 -7 11 -4 7 5 8 -4 4
-28 -6 -29 -3 -39 14 -53 22 -19 28 -44 11 -44 -5 0 -10 4 -10 9 0 19 -60 23
-85 7 -13 -9 -27 -16 -30 -16 -3 0 -5 52 -5 116 0 65 4 113 9 110 5 -3 11 1
14 8 3 8 18 16 34 18 36 5 52 -3 27 -13z m-174 -56 c36 8 38 -2 7 -31 -17 -16
-22 -30 -19 -52 2 -17 10 -30 18 -30 9 0 14 -11 14 -27 0 -37 14 -57 33 -50
11 4 18 -2 23 -16 20 -58 0 -78 -30 -32 -23 35 -42 31 -56 -10 -12 -36 -39
-48 -41 -17 0 9 -2 31 -5 47 -2 17 -3 39 -2 50 1 11 2 59 3 108 0 71 2 84 12
71 9 -12 21 -15 43 -11z"/>
</g>
</svg>
